<svg width="20" height="21" viewBox="0 0 20 21" fill="none" xmlns="http://www.w3.org/2000/svg">
<g clip-path="url(#clip0_61_130)">
<path fill-rule="evenodd" clip-rule="evenodd" d="M9.9702 0.5C4.45694 0.5 0 5.08333 0 10.7535C0 15.286 2.85571 19.1227 6.81735 20.4806C7.31265 20.5827 7.49408 20.26 7.49408 19.9885C7.49408 19.7508 7.47775 18.936 7.47775 18.0871C4.70429 18.6983 4.12673 16.8648 4.12673 16.8648C3.68102 15.6765 3.02061 15.371 3.02061 15.371C2.11286 14.7429 3.08673 14.7429 3.08673 14.7429C4.09367 14.8108 4.62204 15.7954 4.62204 15.7954C5.51327 17.3571 6.94939 16.9158 7.52714 16.6442C7.60959 15.9821 7.87388 15.5237 8.15449 15.2692C5.94245 15.0315 3.6151 14.1488 3.6151 10.2102C3.6151 9.08979 4.01102 8.17312 4.63837 7.46021C4.53939 7.20563 4.19265 6.15292 4.73755 4.74396C4.73755 4.74396 5.57939 4.47229 7.47755 5.79646C8.29022 5.57201 9.12832 5.45784 9.9702 5.45687C10.812 5.45687 11.6702 5.57583 12.4627 5.79646C14.361 4.47229 15.2029 4.74396 15.2029 4.74396C15.7478 6.15292 15.4008 7.20563 15.3018 7.46021C15.9457 8.17312 16.3253 9.08979 16.3253 10.2102C16.3253 14.1488 13.998 15.0144 11.7694 15.2692C12.1327 15.5917 12.4461 16.2027 12.4461 17.1704C12.4461 18.5454 12.4298 19.649 12.4298 19.9883C12.4298 20.26 12.6114 20.5827 13.1065 20.4808C17.0682 19.1225 19.9239 15.286 19.9239 10.7535C19.9402 5.08333 15.4669 0.5 9.9702 0.5Z" fill="#292B36"/>
</g>
<defs>
<clipPath id="clip0_61_130">
<rect width="20" height="20" fill="white" transform="translate(0 0.5)"/>
</clipPath>
</defs>
</svg>
